<svg id="グループ_1" data-name="グループ 1" xmlns="http://www.w3.org/2000/svg" width="174.543" height="44"
  viewBox="0 0 174.543 44">
  <g id="グループ_1-2" data-name="グループ 1" transform="translate(49.818 4.267)">
    <path id="パス_1" data-name="パス 1"
      d="M154.944,16.93l1.7-7.262-6.322,3.814,2.407.556c-8.491,11.1-20.824,27.128-22.424,28.977a.64.64,0,0,1-.1-.134,1.84,1.84,0,0,1-.18-.893,9.64,9.64,0,0,1,.288-1.873l.884-3.5a12.288,12.288,0,0,0,.444-2.562,2.321,2.321,0,0,0-.575-1.663,2.076,2.076,0,0,0-1.569-.611,4.4,4.4,0,0,0-3.2,1.8,21.11,21.11,0,0,0-2.11,3.059l.052-.235a13.432,13.432,0,0,0,.332-2.307c0-1.978-1.289-2.273-2.058-2.273-1.137,0-2.341.751-3.684,2.3a17.734,17.734,0,0,0-1.7,2.329l1.229-5.129-3.093,1.321-2.4,12.911,2.275-.77.06-.23c.268-1.031.55-1.957.839-2.752A22.888,22.888,0,0,1,117,39.553a23.787,23.787,0,0,1,1.24-2.2,13.582,13.582,0,0,1,2.062-2.681c.732-.693,1.177-.838,1.421-.838.147,0,.313,0,.313.507a4.914,4.914,0,0,1-.121.948l-2,10.258,2.36-.751.063-.232a30.846,30.846,0,0,1,1.273-3.834,28.806,28.806,0,0,1,1.718-3.361,20.23,20.23,0,0,1,1.411-2.108,5.667,5.667,0,0,1,1.124-1.129,1.467,1.467,0,0,1,.793-.319.43.43,0,0,1,.334.108.4.4,0,0,1,.108.313,5.279,5.279,0,0,1-.124.962l-.924,5.224a12.336,12.336,0,0,0-.289,2.133,3.375,3.375,0,0,0,.54,1.941,1.774,1.774,0,0,0,1.5.871,2.174,2.174,0,0,0,1.375-.612,19.686,19.686,0,0,0,1.889-2.023l20.717-27.893Z"
      transform="translate(-112.875 -9.668)" fill="#fea61c" />
    <path id="パス_2" data-name="パス 2"
      d="M185.273,68.542l-.312.33c-1.25,1.325-1.675,1.392-1.748,1.392-.043,0-.158,0-.31-.257a1.739,1.739,0,0,1-.218-.9,8.562,8.562,0,0,1,.309-1.916l2.246-8.744L182.2,59.712l-.072.25a3.436,3.436,0,0,0-2.343-.8,5.7,5.7,0,0,0-3.613,1.536A12.234,12.234,0,0,0,173.2,64.49a9.7,9.7,0,0,0-1.2,4.449,4.114,4.114,0,0,0,.809,2.647,2.789,2.789,0,0,0,2.284,1.048c1.5,0,3.06-1.014,4.636-3.014q.422-.537.793-1.092a8.287,8.287,0,0,0-.137,1.208,3.281,3.281,0,0,0,.587,1.923,1.871,1.871,0,0,0,1.558.91,2.151,2.151,0,0,0,1.355-.635,19.725,19.725,0,0,0,1.806-1.892l.5-.59Zm-3.78-5.941c-.3,1.157-.567,2.07-.805,2.715a9.609,9.609,0,0,1-.975,1.9,10.807,10.807,0,0,1-2.045,2.547,2.842,2.842,0,0,1-1.781.82.922.922,0,0,1-.83-.43,2.659,2.659,0,0,1-.345-1.478,8.229,8.229,0,0,1,.444-2.326,13.7,13.7,0,0,1,1.115-2.628,8.264,8.264,0,0,1,1.837-2.3,2.816,2.816,0,0,1,1.723-.771,1.835,1.835,0,0,1,1.146.374,2,2,0,0,1,.678.948Z"
      transform="translate(-145.902 -36.92)" fill="#fea61c" />
    <path id="パス_3" data-name="パス 3"
      d="M215.8,46.787c-.974,1.025-1.514,1.178-1.749,1.178a.684.684,0,0,1-.415-.2,3.941,3.941,0,0,1-.689-.86c-.273-.427-.6-1.006-.962-1.724a36.676,36.676,0,0,1-1.76-3.97A5.744,5.744,0,0,1,214.46,39a4.938,4.938,0,0,1,.883.12l.423.085.609-2.71-.579.028a8.192,8.192,0,0,0-2.54.5,8.556,8.556,0,0,0-2.238,1.316,13.093,13.093,0,0,0-1.763,1.728,19.058,19.058,0,0,0-1.291,1.669l5.362-23.32L209.975,20l-5.962,30.414,2.37-.766.043-.266a18.136,18.136,0,0,1,2.08-5.815,42.57,42.57,0,0,0,1.9,3.908,9.5,9.5,0,0,0,1.433,2.1,2.181,2.181,0,0,0,1.562.711c.515,0,1.438-.29,3.508-2.789l.238-.288-.854-.986Z"
      transform="translate(-163.788 -14.556)" fill="#fea61c" />
    <path id="パス_4" data-name="パス 4"
      d="M243.72,69.588l-1.058-.882-.281.354a9.084,9.084,0,0,1-1.926,1.9,3.019,3.019,0,0,1-1.716.561,2.233,2.233,0,0,1-1.78-.787,3.1,3.1,0,0,1-.71-2.134c0-.026,0-.051,0-.075a15.18,15.18,0,0,0,4.813-2.811,5.072,5.072,0,0,0,1.953-3.644,2.153,2.153,0,0,0-.716-1.663,2.523,2.523,0,0,0-1.751-.632,5.2,5.2,0,0,0-3.334,1.408,11.076,11.076,0,0,0-2.672,3.432,9.04,9.04,0,0,0-1.072,4.135,4.855,4.855,0,0,0,1.171,3.379,4.039,4.039,0,0,0,3.128,1.308,5.57,5.57,0,0,0,2.969-.852,10.629,10.629,0,0,0,2.728-2.663Zm-5.828-6.4c.864-1.332,1.693-2.008,2.464-2.008.275,0,.486.042.486.572a3.534,3.534,0,0,1-.467,1.584,7.467,7.467,0,0,1-1.281,1.748,10.175,10.175,0,0,1-2.712,1.867A10.279,10.279,0,0,1,237.892,63.185Z"
      transform="translate(-180.245 -37.661)" fill="#fea61c" />
    <path id="パス_5" data-name="パス 5"
      d="M264.012,60.446a3.111,3.111,0,0,0-1.889-.571,4.99,4.99,0,0,0-4.038,2.109,3.69,3.69,0,0,0-.67,2.125,2.669,2.669,0,0,0,.53,1.632,10.993,10.993,0,0,0,1.788,1.706,11.831,11.831,0,0,1,1.674,1.521,1.374,1.374,0,0,1,.275.873,1.709,1.709,0,0,1-.621,1.3,2.187,2.187,0,0,1-1.545.585,2.736,2.736,0,0,1-2.611-1.972l-.279-.66-1.9,2.236.209.282a4.349,4.349,0,0,0,3.587,1.945,5.257,5.257,0,0,0,2.5-.634,5.041,5.041,0,0,0,1.886-1.712,4.243,4.243,0,0,0,.707-2.341,4.352,4.352,0,0,0-2-3.3L260.37,64.56a2.012,2.012,0,0,1-.952-1.442,1.264,1.264,0,0,1,.505-.971,1.83,1.83,0,0,1,1.251-.463,1.9,1.9,0,0,1,1.332.458,2.018,2.018,0,0,1,.622,1.311l.075.584.539-.235a1.786,1.786,0,0,0,1.106-1.762A1.93,1.93,0,0,0,264.012,60.446Z"
      transform="translate(-192.12 -37.716)" fill="#fea61c" />
    <path id="パス_6" data-name="パス 6"
      d="M303.5,57.729l-2.307,2.153.322.324a2.622,2.622,0,0,1,.631.907,3.475,3.475,0,0,1,.167,1.173,8.543,8.543,0,0,1-1.757,4.689c-1.847,2.741-2.42,2.841-2.479,2.844-.023,0-.046,0-.091-.08a3.32,3.32,0,0,1-.248-1.02c-.085-.577-.186-1.472-.3-2.657-.2-2.29-.322-4.506-.365-6.578V58.237l-2.859,1.3L295.5,69.9a4.7,4.7,0,0,0,.423,1.723,1.239,1.239,0,0,0,1.136.63,1.692,1.692,0,0,0,.888-.27,6.638,6.638,0,0,0,.948-.758,19.71,19.71,0,0,0,2.25-2.6c2.348-3.24,3.489-5.8,3.489-7.823a4.319,4.319,0,0,0-.844-2.681Z"
      transform="translate(-214.178 -36.517)" fill="#fea61c" />
    <path id="パス_7" data-name="パス 7"
      d="M328.529,43.7a1.636,1.636,0,0,0,1.2-.5,1.706,1.706,0,0,0-2.413-2.413,1.725,1.725,0,0,0,1.217,2.909Z"
      transform="translate(-232.391 -26.777)" fill="#fea61c" />
    <path id="パス_8" data-name="パス 8"
      d="M324.3,69.032c-1.27,1.382-1.729,1.452-1.809,1.452-.041,0-.127,0-.238-.2a1.9,1.9,0,0,1-.182-.907,10.941,10.941,0,0,1,.459-2.687l2.129-7.958L321.5,60.051l-1.4,7.777a12.911,12.911,0,0,0-.266,2.127,3.375,3.375,0,0,0,.54,1.941,1.774,1.774,0,0,0,1.5.871,2.135,2.135,0,0,0,1.367-.614,20.656,20.656,0,0,0,1.847-1.987l.518-.57-1.008-.882Z"
      transform="translate(-228.491 -37.075)" fill="#fea61c" />
    <path id="パス_9" data-name="パス 9"
      d="M341.83,69.06a9.081,9.081,0,0,1-1.926,1.9,3.019,3.019,0,0,1-1.716.561,2.233,2.233,0,0,1-1.78-.787,3.1,3.1,0,0,1-.71-2.134c0-.026,0-.051,0-.075a15.181,15.181,0,0,0,4.813-2.811,5.071,5.071,0,0,0,1.953-3.644,2.153,2.153,0,0,0-.716-1.663A2.523,2.523,0,0,0,340,59.777a5.2,5.2,0,0,0-3.334,1.408,11.068,11.068,0,0,0-2.672,3.432,9.035,9.035,0,0,0-1.073,4.135,4.855,4.855,0,0,0,1.171,3.379,4.038,4.038,0,0,0,3.128,1.308,5.572,5.572,0,0,0,2.969-.852,10.635,10.635,0,0,0,2.727-2.663l.254-.336-1.059-.882Zm-4.489-5.875c.865-1.332,1.693-2.008,2.464-2.008.275,0,.485.042.485.572a3.534,3.534,0,0,1-.467,1.584,7.471,7.471,0,0,1-1.281,1.748,10.178,10.178,0,0,1-2.711,1.867A10.271,10.271,0,0,1,337.341,63.185Z"
      transform="translate(-235.801 -37.661)" fill="#fea61c" />
    <path id="パス_10" data-name="パス 10"
      d="M373.881,58.125l-.3-.341-2.378,2.19.456.313a2.144,2.144,0,0,1,.843,1.921,9.247,9.247,0,0,1-1.724,4.574c-1.685,2.738-2.241,2.866-2.266,2.881,0,0-.085-.064-.155-.353q-.022-.127-.085-.542t-.094-.72c-.022-.217-.054-.517-.1-.9s-.086-.747-.128-1.081c-.128-1.326-.251-3.544-.365-6.591l-.048-1.192-2.856,1.287.693,5.366a24.667,24.667,0,0,1-2.017,3.493,4.39,4.39,0,0,1-1.176,1.321.862.862,0,0,1-.1-.275c-.1-.4-.244-1.543-.442-3.408-.157-1.611-.265-2.868-.322-3.736s-.085-1.806-.085-2.816V58.268l-2.86,1.3,1.336,10.465a5.5,5.5,0,0,0,.436,1.616,1.153,1.153,0,0,0,1.056.631c.815,0,1.75-.763,2.941-2.4A23.477,23.477,0,0,0,365.7,67.49l.3,2.466a4.943,4.943,0,0,0,.415,1.653,1.208,1.208,0,0,0,1.1.675c.548,0,1.146-.39,1.878-1.222a27.354,27.354,0,0,0,1.931-2.436,26.17,26.17,0,0,0,2.543-4.365,9.159,9.159,0,0,0,.877-3.6A3.723,3.723,0,0,0,373.881,58.125Z"
      transform="translate(-250.02 -36.548)" fill="#fea61c" />
  </g>
  <path id="前面オブジェクトで型抜き_12" data-name="前面オブジェクトで型抜き 12"
    d="M21.89,44h0L0,32.89V11.11L22,0,44,10.89v22L21.89,44Zm3.63-16.335-2.695,1.32v12.43l2.695-1.32V27.665ZM13.97,24.42h0l1.869.769V38.72l5.17,2.64V23.1L1.76,13.42V31.68l5.17,2.64V20.79l1.87.88V35.2l5.17,2.64V24.421Zm13.31.33h0l.055,14.409L37.84,33.935V19.415l4.345-2.255V13.31L33.44,17.765v13.8l-1.8.88-.011-13.86-8.745,4.4v3.9l4.4-2.145Zm14.96-5.555L39.6,20.57V33l2.64-1.265ZM13.64,15.51h0l.037,1.687,8.287,4.217,1.687-.843L13.64,15.51Zm4.125-2.365-2.31,1.265L25.74,19.525l2.31-1.21-10.285-5.17Zm1.1-3.685.011,2.365,11.209,5.5L32.4,16.17,18.865,9.46ZM21.01,2.53,2.75,11.77l9.02,4.4V14.08l5.28-2.75V6.82l3.96-1.98Zm.935,3.96h0L19.69,7.645,34.485,15.18l2.365-1.21L21.945,6.49Zm.9-4-.007,2.42,16.1,8.067,2.42-1.21Z"
    transform="translate(0 0)" fill="#f9a837" />
</svg>