<svg id="グループ_1" data-name="グループ 1" xmlns="http://www.w3.org/2000/svg" width="207.184" height="52" viewBox="0 0 207.184 52">
  <g id="グループ_1-2" data-name="グループ 1" transform="translate(59.135 5.065)">
    <path id="パス_1" data-name="パス 1" d="M162.811,18.288l2.019-8.62-7.5,4.528,2.857.66c-10.079,13.173-24.718,32.2-26.618,34.4a.76.76,0,0,1-.113-.159,2.184,2.184,0,0,1-.214-1.06,11.441,11.441,0,0,1,.342-2.223l1.049-4.149a14.588,14.588,0,0,0,.527-3.041,2.754,2.754,0,0,0-.682-1.974,2.465,2.465,0,0,0-1.862-.725,5.221,5.221,0,0,0-3.8,2.136,25.058,25.058,0,0,0-2.5,3.631l.061-.279a15.945,15.945,0,0,0,.395-2.739c0-2.348-1.53-2.7-2.442-2.7-1.349,0-2.779.892-4.373,2.725a21.051,21.051,0,0,0-2.012,2.765l1.459-6.088-3.672,1.569-2.849,15.326,2.7-.914.071-.273c.318-1.224.653-2.322,1-3.266a27.177,27.177,0,0,1,1.129-2.672,28.234,28.234,0,0,1,1.472-2.615,16.123,16.123,0,0,1,2.447-3.183c.869-.823,1.4-.995,1.686-.995.174,0,.371,0,.371.6a5.833,5.833,0,0,1-.144,1.125l-2.369,12.176,2.8-.891.075-.276a36.616,36.616,0,0,1,1.511-4.551,34.192,34.192,0,0,1,2.04-3.989,24.012,24.012,0,0,1,1.675-2.5,6.727,6.727,0,0,1,1.334-1.341,1.742,1.742,0,0,1,.941-.379.511.511,0,0,1,.4.128.479.479,0,0,1,.128.371,6.267,6.267,0,0,1-.147,1.142l-1.1,6.2a14.643,14.643,0,0,0-.343,2.531,4.006,4.006,0,0,0,.641,2.3,2.106,2.106,0,0,0,1.775,1.034,2.58,2.58,0,0,0,1.632-.727,23.364,23.364,0,0,0,2.242-2.4L161.435,15.8Z" transform="translate(-112.875 -9.668)" fill="#171717"/>
    <path id="パス_2" data-name="パス 2" d="M187.755,70.429l-.37.392c-1.484,1.572-1.988,1.652-2.075,1.652-.051,0-.188,0-.368-.305a2.064,2.064,0,0,1-.259-1.064,10.163,10.163,0,0,1,.367-2.274l2.666-10.379-3.607,1.5-.086.3a4.078,4.078,0,0,0-2.781-.946,6.77,6.77,0,0,0-4.288,1.824,14.521,14.521,0,0,0-3.531,4.5A11.512,11.512,0,0,0,172,70.9a4.883,4.883,0,0,0,.96,3.142,3.31,3.31,0,0,0,2.711,1.244c1.781,0,3.632-1.2,5.5-3.577q.5-.637.941-1.3a9.836,9.836,0,0,0-.163,1.433,3.894,3.894,0,0,0,.7,2.283,2.221,2.221,0,0,0,1.849,1.08,2.553,2.553,0,0,0,1.608-.753,23.406,23.406,0,0,0,2.143-2.246l.592-.7Zm-4.487-7.052c-.352,1.374-.673,2.458-.956,3.222a11.405,11.405,0,0,1-1.157,2.261,12.828,12.828,0,0,1-2.428,3.023,3.373,3.373,0,0,1-2.114.973,1.094,1.094,0,0,1-.985-.51,3.156,3.156,0,0,1-.41-1.754,9.768,9.768,0,0,1,.527-2.76,16.263,16.263,0,0,1,1.324-3.12,9.809,9.809,0,0,1,2.18-2.733,3.343,3.343,0,0,1,2.045-.916,2.178,2.178,0,0,1,1.36.444,2.377,2.377,0,0,1,.805,1.125Z" transform="translate(-141.023 -32.894)" fill="#171717"/>
    <path id="パス_3" data-name="パス 3" d="M218,52.092c-1.156,1.216-1.8,1.4-2.076,1.4a.812.812,0,0,1-.493-.234,4.677,4.677,0,0,1-.818-1.021c-.324-.507-.707-1.194-1.142-2.046a43.534,43.534,0,0,1-2.089-4.712,6.818,6.818,0,0,1,5.027-2.629,5.862,5.862,0,0,1,1.048.143l.5.1.723-3.217-.687.034a9.724,9.724,0,0,0-3.015.6,10.157,10.157,0,0,0-2.656,1.562,15.54,15.54,0,0,0-2.093,2.052A22.616,22.616,0,0,0,208.7,46.1l6.364-27.681L211.09,20.3l-7.077,36.1,2.813-.909.051-.315a21.529,21.529,0,0,1,2.469-6.9,50.527,50.527,0,0,0,2.259,4.639,11.273,11.273,0,0,0,1.7,2.5,2.588,2.588,0,0,0,1.854.845c.611,0,1.707-.344,4.164-3.311l.283-.342-1.014-1.17Z" transform="translate(-156.266 -13.833)" fill="#171717"/>
    <path id="パス_4" data-name="パス 4" d="M245.637,71.423l-1.256-1.047-.334.42a10.782,10.782,0,0,1-2.286,2.256,3.583,3.583,0,0,1-2.036.666,2.65,2.65,0,0,1-2.112-.934,3.678,3.678,0,0,1-.842-2.533c0-.03,0-.06,0-.089a18.019,18.019,0,0,0,5.713-3.336A6.021,6.021,0,0,0,244.8,62.5a2.555,2.555,0,0,0-.85-1.975,3,3,0,0,0-2.078-.75,6.17,6.17,0,0,0-3.958,1.672,13.147,13.147,0,0,0-3.172,4.074,10.731,10.731,0,0,0-1.273,4.908,5.763,5.763,0,0,0,1.389,4.01,4.794,4.794,0,0,0,3.713,1.553,6.612,6.612,0,0,0,3.524-1.012,12.617,12.617,0,0,0,3.238-3.161Zm-6.918-7.6c1.026-1.582,2.01-2.383,2.924-2.383.326,0,.576.05.576.678A4.2,4.2,0,0,1,241.665,64a8.863,8.863,0,0,1-1.52,2.075,12.078,12.078,0,0,1-3.219,2.217A12.2,12.2,0,0,1,238.719,63.822Z" transform="translate(-170.291 -33.525)" fill="#171717"/>
    <path id="パス_5" data-name="パス 5" d="M265.748,60.553a3.693,3.693,0,0,0-2.243-.678,5.923,5.923,0,0,0-4.793,2.5,4.381,4.381,0,0,0-.8,2.523,3.167,3.167,0,0,0,.629,1.937,13.049,13.049,0,0,0,2.123,2.025,14.042,14.042,0,0,1,1.988,1.806,1.631,1.631,0,0,1,.326,1.036,2.029,2.029,0,0,1-.738,1.544,2.6,2.6,0,0,1-1.834.694,3.248,3.248,0,0,1-3.1-2.34l-.332-.784-2.252,2.655.248.334a5.162,5.162,0,0,0,4.258,2.309,6.24,6.24,0,0,0,2.972-.753,5.983,5.983,0,0,0,2.239-2.032,5.037,5.037,0,0,0,.839-2.779c0-1.356-.8-2.674-2.369-3.912l-1.489-1.207a2.389,2.389,0,0,1-1.131-1.712,1.5,1.5,0,0,1,.6-1.153,2.172,2.172,0,0,1,1.485-.549,2.258,2.258,0,0,1,1.582.544,2.4,2.4,0,0,1,.738,1.556l.089.693.64-.279a2.12,2.12,0,0,0,1.312-2.092A2.291,2.291,0,0,0,265.748,60.553Z" transform="translate(-180.412 -33.572)" fill="#171717"/>
    <path id="パス_6" data-name="パス 6" d="M305.234,57.729,302.5,60.285l.382.384a3.111,3.111,0,0,1,.749,1.077,4.125,4.125,0,0,1,.2,1.393A10.14,10.14,0,0,1,301.74,68.7c-2.192,3.253-2.872,3.372-2.942,3.375-.027,0-.054,0-.108-.095a3.941,3.941,0,0,1-.294-1.21c-.1-.685-.221-1.747-.354-3.154-.237-2.718-.382-5.349-.433-7.808V58.333l-3.393,1.546,1.53,12.3a5.585,5.585,0,0,0,.5,2.045,1.471,1.471,0,0,0,1.349.748,2.008,2.008,0,0,0,1.055-.321,7.882,7.882,0,0,0,1.125-.9,23.4,23.4,0,0,0,2.67-3.089c2.787-3.845,4.141-6.883,4.141-9.286a5.127,5.127,0,0,0-1-3.183Z" transform="translate(-199.211 -32.55)" fill="#171717"/>
    <path id="パス_7" data-name="パス 7" d="M328.849,44.336a1.942,1.942,0,0,0,1.419-.588,2.025,2.025,0,0,0-2.864-2.864,2.047,2.047,0,0,0,1.445,3.452Z" transform="translate(-214.733 -24.25)" fill="#171717"/>
    <path id="パス_8" data-name="パス 8" d="M325.139,70.958c-1.507,1.641-2.053,1.724-2.147,1.724-.049,0-.151,0-.283-.24a2.256,2.256,0,0,1-.216-1.077,12.987,12.987,0,0,1,.545-3.19l2.527-9.446-3.754,1.57L320.15,69.53a15.323,15.323,0,0,0-.316,2.525,4.006,4.006,0,0,0,.641,2.3,2.105,2.105,0,0,0,1.775,1.034,2.535,2.535,0,0,0,1.623-.729,24.517,24.517,0,0,0,2.193-2.358l.615-.676-1.2-1.047Z" transform="translate(-211.409 -33.026)" fill="#171717"/>
    <path id="パス_9" data-name="パス 9" d="M343.5,70.8a10.78,10.78,0,0,1-2.286,2.256,3.583,3.583,0,0,1-2.036.666,2.65,2.65,0,0,1-2.112-.934,3.679,3.679,0,0,1-.842-2.533c0-.03,0-.06,0-.089a18.019,18.019,0,0,0,5.713-3.336,6.019,6.019,0,0,0,2.319-4.325,2.555,2.555,0,0,0-.85-1.975,3,3,0,0,0-2.078-.75,6.17,6.17,0,0,0-3.958,1.672,13.138,13.138,0,0,0-3.172,4.074,10.725,10.725,0,0,0-1.273,4.908,5.763,5.763,0,0,0,1.389,4.01,4.794,4.794,0,0,0,3.713,1.553,6.615,6.615,0,0,0,3.525-1.012,12.624,12.624,0,0,0,3.237-3.161l.3-.4-1.257-1.047Zm-5.328-6.974c1.026-1.582,2.01-2.383,2.925-2.383.326,0,.576.05.576.678A4.2,4.2,0,0,1,341.114,64a8.869,8.869,0,0,1-1.521,2.075,12.082,12.082,0,0,1-3.218,2.217A12.193,12.193,0,0,1,338.168,63.822Z" transform="translate(-217.639 -33.525)" fill="#171717"/>
    <path id="パス_10" data-name="パス 10" d="M376.781,58.189l-.354-.4-2.823,2.6.541.372a2.545,2.545,0,0,1,1,2.28,10.976,10.976,0,0,1-2.046,5.43c-2,3.25-2.66,3.4-2.69,3.419,0,0-.1-.076-.184-.419q-.026-.151-.1-.644t-.112-.855c-.026-.257-.064-.614-.116-1.068s-.1-.886-.152-1.284c-.152-1.574-.3-4.206-.433-7.824l-.057-1.415-3.39,1.527.823,6.37a29.278,29.278,0,0,1-2.394,4.146,5.212,5.212,0,0,1-1.4,1.568,1.024,1.024,0,0,1-.124-.327c-.113-.469-.29-1.832-.525-4.046-.186-1.913-.315-3.4-.382-4.435s-.1-2.143-.1-3.342V58.359l-3.395,1.547,1.586,12.422a6.533,6.533,0,0,0,.517,1.918,1.369,1.369,0,0,0,1.254.749c.968,0,2.078-.906,3.491-2.847a27.871,27.871,0,0,0,1.846-2.843l.36,2.927a5.867,5.867,0,0,0,.493,1.962,1.434,1.434,0,0,0,1.306.8c.65,0,1.361-.463,2.23-1.451a32.47,32.47,0,0,0,2.292-2.891,31.065,31.065,0,0,0,3.018-5.181,10.872,10.872,0,0,0,1.042-4.278A4.419,4.419,0,0,0,376.781,58.189Z" transform="translate(-229.757 -32.576)" fill="#171717"/>
  </g>
  <path id="前面オブジェクトで型抜き_12" data-name="前面オブジェクトで型抜き 12" d="M25.87,52h0L0,38.87V13.13L26,0,52,12.87v26L25.87,52Zm4.29-19.305-3.185,1.56v14.69l3.185-1.56V32.695ZM16.51,28.86h0l2.209.909V45.76l6.11,3.12V27.3L2.08,15.86V37.44l6.11,3.12V24.57l2.21,1.04V41.6l6.11,3.12V28.861Zm15.73.39h0l.065,17.029L44.72,40.1V22.945l5.135-2.665V15.73L39.52,20.995V37.31l-2.132,1.04-.013-16.38L27.04,27.17v4.615l5.2-2.535Zm17.68-6.565L46.8,24.31V39l3.12-1.495ZM16.12,18.33h0l.044,1.994,9.793,4.983,1.993-1L16.12,18.33Zm4.875-2.795-2.73,1.495L30.42,23.075l2.73-1.43-12.155-6.11Zm1.3-4.355.013,2.795,13.247,6.5,2.73-1.365L22.3,11.18ZM24.83,2.99,3.25,13.91l10.66,5.2V16.64l6.24-3.25V8.06l4.68-2.34Zm1.1,4.68h0L23.27,9.035l17.485,8.9,2.8-1.43L25.935,7.67ZM27,2.947l-.008,2.86L46.02,15.34l2.86-1.43Z" transform="translate(0 0)" fill="#171717"/>
</svg>
