<?xml version="1.0" encoding="utf-8"?>
<!-- Generator: Adobe Illustrator 25.4.6, SVG Export Plug-In . SVG Version: 6.00 Build 0)  -->
<svg version="1.1" id="レイヤー_1" xmlns="http://www.w3.org/2000/svg" xmlns:xlink="http://www.w3.org/1999/xlink" x="0px"
	 y="0px" width="897.7px" height="222.3px" viewBox="0 0 897.7 222.3" style="enable-background:new 0 0 897.7 222.3;"
	 xml:space="preserve">
<style type="text/css">
	.st0{fill:#222222;}
	.st1{fill:#FAA543;}
	.st2{fill:none;stroke:#FAA543;stroke-width:3;}
</style>
<g>
	<path className="st0" d="M2.9,1.5h18.5L29,32.6C31.8,44.1,33.6,63,33.6,63h0.2c0,0,2.9-19.9,5.2-31l7.1-30.5h17.2l7.1,30.4
		C72.9,43,75.6,63,75.6,63h0.2c0,0,2.2-19.2,5-30.5l7.4-31h18.5L84.9,81.1H67l-7.7-33.4c-2.2-9.8-4.4-27.5-4.4-27.5h-0.2
		c0,0-2.2,17.7-4.4,27.5l-7.8,33.4h-18L2.9,1.5z"/>
	<path className="st0" d="M105.3,52.8c0-17.1,11.9-30.2,29.2-30.2c8.1,0,14.6,2.7,19.6,7.3c6.4,6.2,9.3,15.8,9.2,27.1h-41.5
		c1.1,8.6,5.7,13.7,13.8,13.7c5.2,0,8.6-2,10.4-5.6h16.3c-2.9,10.1-12.2,17.8-26.9,17.8C116.8,82.8,105.3,69.8,105.3,52.8z
		 M121.9,47.2h24.3c-0.5-7.9-5-12.7-11.7-12.7C126.8,34.5,123,39.4,121.9,47.2z"/>
	<path className="st0" d="M198.7,1.5h24.5l10,33.2c2.9,10,6,28.4,6,28.4h0.3c0,0,3-18.4,5.9-28.4l9.7-33.2h24.8v79.6h-16.8V45.5
		c0-10.1,1.3-28.7,1.3-28.7h-0.2c0,0-3.4,17-6.2,26.4l-11.3,37.9h-15l-11.4-37.9c-2.8-9.4-6.2-26.4-6.2-26.4h-0.2
		c0,0,1.3,18.6,1.3,28.7v35.6h-16.4V1.5z"/>
	<path className="st0" d="M326.7,74.2h-0.2c-3.7,5.2-8.5,8.5-17.2,8.5c-11.2,0-19.5-6-19.5-17.2c0-12.6,10-15.8,22.4-17.3
		c10.2-1.4,14.3-3,14.3-7.3c0-4.1-2.7-6.8-8.5-6.8c-6.4,0-9.5,3-10,7.5h-15.5c0.4-9.7,8.3-18.8,25.2-18.8c7.3,0,12.4,1.1,16.4,3.4
		c5.9,3.4,8.7,9.3,8.7,17v29.2c0,4.5,0.6,7,2.1,7.9v1h-16.4C327.8,79.8,327,77.4,326.7,74.2z M326.9,60.7v-7.4
		c-2.5,1.5-6.1,2.4-9.8,3.2c-7.4,1.6-10.9,3.4-10.9,8.3s3.7,6.7,8.3,6.7C322,71.6,326.9,66.9,326.9,60.7z"/>
	<path className="st0" d="M376.4,56.3l-5.7,5.9v18.9h-16.6V1.5h16.6v24.8c0,8.3-0.3,14.7-0.5,18.3L389,24.2h19.5l-20.3,21.1l22.7,35.8
		h-19.5L376.4,56.3z"/>
	<path className="st0" d="M410.4,52.8c0-17.1,11.9-30.2,29.2-30.2c8.1,0,14.6,2.7,19.6,7.3c6.4,6.2,9.3,15.8,9.2,27.1h-41.5
		c1.1,8.6,5.7,13.7,13.8,13.7c5.2,0,8.6-2,10.4-5.6h16.3c-2.9,10.1-12.2,17.8-26.9,17.8C421.8,82.8,410.4,69.8,410.4,52.8z
		 M426.9,47.2h24.3c-0.5-7.9-5-12.7-11.7-12.7C431.9,34.5,428,39.4,426.9,47.2z"/>
	<path className="st1" d="M10.8,126.2h14.7v0.5l-10.4,31.5H8.4L10.8,126.2z M34.4,126.2H49v0.5l-10.5,31.5h-6.7L34.4,126.2z"/>
	<path className="st1" d="M191.3,126.2H206v0.5l-10.4,31.5h-6.7L191.3,126.2z M214.9,126.2h14.7v0.5L219,158.2h-6.7L214.9,126.2z"/>
	<path className="st2" d="M261.3,121.5h18.9l11.8,38.3c2.7,8.8,5.5,23.4,5.5,23.4h0.2c0,0,2.8-14.7,5.3-23.4l11.7-38.3h18.4l-26.3,79.6
		h-19.2L261.3,121.5z"/>
	<path className="st2" d="M340.9,121.5h18.3v79.6h-18.3V121.5z"/>
	<path className="st2" d="M372.8,121.5h59.7v15.2H391v15.8h36V167h-36v18.5h42.3v15.6h-60.5V121.5z"/>
	<path className="st2" d="M438.7,121.5h18.5l7.6,31.1c2.8,11.4,4.6,30.4,4.6,30.4h0.2c0,0,2.9-19.9,5.2-31l7.1-30.5h17.2l7.1,30.4
		c2.5,11.1,5.1,31.1,5.1,31.1h0.2c0,0,2.2-19.2,5-30.5l7.4-31h18.5l-21.8,79.6h-17.9l-7.7-33.4c-2.2-9.8-4.4-27.5-4.4-27.5h-0.2
		c0,0-2.2,17.7-4.4,27.5l-7.8,33.4h-18L438.7,121.5z"/>
	<path className="st0" d="M572.6,144.2h8.6v-4.8c0-6.1,1.5-10.4,4.8-13.4c3.7-3.3,9.6-4.6,16.9-4.5c2.2,0,4.6,0.1,7,0.4v12
		c-8.5-0.3-11.9,0.2-11.9,6.6v3.6h11.9v10.9h-11.9v46h-16.8v-46h-8.6V144.2z"/>
	<path className="st0" d="M614.5,172.8c0-17.1,12-30.2,30.2-30.2c18.1,0,30,13.1,30,30.2c0,17-11.9,30.2-30,30.2
		C626.5,202.9,614.5,189.8,614.5,172.8z M657.6,172.8c0-10.8-4.7-18.2-13.1-18.2c-8.6,0-13.1,7.4-13.1,18.2c0,10.7,4.5,18,13.1,18
		C652.9,190.7,657.6,183.5,657.6,172.8z"/>
	<path className="st0" d="M699.3,154.3h0.3c3.6-7.9,8.8-11.1,15.8-11.1c1.6,0,2.8,0.1,3.5,0.4v14.7h-0.4c-1.2-0.2-2.4-0.3-3.5-0.3
		c-9.1-0.1-15.1,5.6-15.1,16.7v26.4h-16.8v-56.9h16.2V154.3z"/>
	<path className="st0" d="M787.3,194.1h-0.2c-3.7,5.2-8.5,8.5-17.2,8.5c-11.2,0-19.5-6-19.5-17.2c0-12.6,10-15.8,22.4-17.3
		c10.2-1.4,14.3-3,14.3-7.3c0-4.1-2.7-6.8-8.5-6.8c-6.4,0-9.5,3-10,7.5h-15.5c0.4-9.7,8.3-18.8,25.3-18.8c7.3,0,12.4,1.1,16.4,3.4
		c5.9,3.4,8.7,9.3,8.7,17v29.2c0,4.5,0.6,7,2.1,7.9v1h-16.4C788.4,199.8,787.6,197.4,787.3,194.1z M787.5,180.7v-7.4
		c-2.5,1.5-6.1,2.4-9.8,3.2c-7.4,1.6-10.9,3.4-10.9,8.3c0,4.9,3.7,6.7,8.3,6.7C782.6,191.6,787.5,186.9,787.5,180.7z"/>
	<path className="st0" d="M815,121.5h16.9v79.6H815V121.5z"/>
	<path className="st0" d="M843.4,121.5h16.9v79.6h-16.9V121.5z"/>
	<path className="st0" d="M870.7,183.6h17.8v17.5h-17.8V183.6z"/>
</g>
<text transform="matrix(1 0 0 1 -11.7455 -243.7047)"><tspan x="0" y="0" className="st0" style="font-family:'NHaasGroteskTXPro-75Bd'; font-size:107px;">We Make </tspan><tspan x="0" y="120" className="st1" style="font-family:'Gotham-Medium'; font-size:107px;">&quot;    &quot;</tspan><tspan x="232.6" y="120" className="st0" style="font-family:'NHaasGroteskTXPro-75Bd'; font-size:107px;"> </tspan><tspan x="258.4" y="120" className="st2" style="font-family:'NHaasGroteskTXPro-75Bd'; font-size:107px;">VIEW</tspan><tspan x="542.7" y="120" className="st0" style="font-family:'NHaasGroteskTXPro-75Bd'; font-size:107px;"> for all.</tspan></text>
</svg>
