<?xml version="1.0" encoding="utf-8"?>
<!-- Generator: Adobe Illustrator 25.4.6, SVG Export Plug-In . SVG Version: 6.00 Build 0)  -->
<svg version="1.1" id="レイヤー_1" xmlns="http://www.w3.org/2000/svg" xmlns:xlink="http://www.w3.org/1999/xlink" x="0px"
	 y="0px" width="50px" height="125px" viewBox="0 0 50 125" style="enable-background:new 0 0 50 125;" xml:space="preserve">
<g>
	<path d="M37,5.5c0.9,1.4,1.6,2,2.9,2.7c-0.5,0.6-0.7,1.2-1,1.9c-1.1-0.9-1.6-1.5-2.4-2.6c0.1,0.8,0.1,1.6,0.1,2.2v1.1
		c0,0.9,0,1.2,0.1,1.7h-2.2c0.1-0.4,0.1-0.9,0.1-1.7V9.8c0-0.8,0-0.8,0-1.2c0-0.2,0-0.2,0-0.9c-0.8,1.5-1.6,2.6-2.9,3.9
		c-0.3-0.7-0.7-1.2-1.2-1.9c0.9-0.6,1.3-1.1,2.1-2.1C33.2,7,33.6,6.4,34,5.5h-1c-0.8,0-1.3,0-1.8,0.1V3.5c0.5,0.1,0.9,0.1,1.8,0.1
		h1.6V2.8c0-0.7,0-1.1-0.1-1.5h2.3c-0.1,0.5-0.1,0.8-0.1,1.6v0.7h1.2c0.7,0,1.1,0,1.6-0.1v2.1c-0.5-0.1-1.1-0.1-1.6-0.1H37z
		 M30.8,17.6c1.2-1.6,1.6-2.4,2.1-4.5l1.9,0.8c-0.7,2.4-0.9,2.9-2.2,5L30.8,17.6z M38,16.6c0,0.4,0.1,0.5,0.4,0.6
		c0.3,0.1,0.7,0.1,1.4,0.1c2.1,0,2.7-0.1,3-0.3c0.2-0.2,0.3-0.8,0.3-1.9c0.8,0.3,1.2,0.5,2.1,0.6c-0.3,3.6-0.5,3.7-5.3,3.7
		c-1.8,0-2.5-0.1-3.2-0.3c-0.8-0.3-1-0.7-1-1.7V15c0-0.9,0-1.3-0.1-1.9h2.4C38,13.6,38,14,38,15V16.6z M40,12.2
		c0-0.5,0.1-1.1,0.1-1.7V3.7c0-0.8,0-1.4-0.1-1.9c0.6,0.1,1.1,0.1,1.9,0.1h4.4c0.8,0,1.3,0,1.9-0.1c-0.1,0.5-0.1,1.1-0.1,1.9v6.8
		c0,0.8,0,1.4,0.1,1.9c0,0-0.6,0-1.8-0.1h-4.6c-0.5,0-0.8,0-1.3,0c0.7,0.6,1.3,1.3,2.2,2.5L41,16.2c-0.9-1.5-1.3-1.9-2.5-3.1
		L40,12.2z M42.1,4.9H46V3.7h-3.9V4.9z M42.1,7.7H46V6.6h-3.9V7.7z M42.1,10.6H46V9.4h-3.9V10.6z M47.4,18.7c-1-2.1-1.6-3.3-2.8-4.8
		l1.9-0.9c1.3,1.7,1.9,2.7,2.9,4.5L47.4,18.7z"/>
	<path d="M36.5,30.8c-0.3,0.2-0.4,0.3-0.8,0.6c-0.3-0.6-0.6-1-1.1-1.5v11c0,1,0,1.7,0.1,2.4h-2.3c0.1-0.8,0.1-1.4,0.1-2.4v-5.5
		c0-0.7,0-1.1,0.1-2.6c-0.4,0.7-0.9,1.4-1.4,2c-0.3-1.1-0.5-1.6-0.9-2.4c1.2-1.4,2.3-3.2,3.1-5.3c0.4-1.1,0.6-1.9,0.7-2.6l2.3,0.5
		c-1.2,3.2-1.2,3.2-1.8,4.6c1.2-0.8,1.5-1,2.2-1.6c1.3-1.2,2-2.1,2.6-3.4l2.3,0.4c-0.3,0.4-0.3,0.4-0.6,0.9h2.6c0.7,0,1.2,0,1.7-0.1
		l0.9,0.8c-0.1,0.1-0.1,0.1-0.6,0.8c-0.1,0.1-0.2,0.2-0.4,0.5c-0.1,0.1-0.3,0.3-0.4,0.5c-0.1,0.2-0.2,0.2-0.3,0.4H47
		c0.7,0,1.1,0,1.6-0.1c0,0.5-0.1,0.9-0.1,1.6v1.5c0,0.9,0,1.2,0.1,1.6c-0.5,0-0.8-0.1-1.6-0.1h-1.9c0.2,1,0.3,1.3,0.6,2.1
		c1-0.7,1.4-1,2.1-1.8l1.6,1.4l-0.3,0.2c-1,0.8-2,1.6-2.7,2c0.5,0.8,1,1.4,1.6,2c0.4,0.4,0.8,0.7,1.7,1.2c-0.5,0.8-0.7,1.3-1.1,2.1
		c-2-1.7-3-2.9-4-4.7c-0.7-1.4-1.1-2.7-1.5-4.4h-0.8c-0.7,0.5-0.7,0.6-1.1,0.8c1.8,1.8,2.8,4,2.8,6.1c0,1.4-0.3,2.2-0.9,2.6
		c-0.5,0.3-1.2,0.4-2.4,0.4c-0.2,0-0.7,0-1.3,0c-0.1-0.7-0.3-1.1-0.6-1.9c-1.2,0.6-1.4,0.7-3.2,1.4c-0.2-0.5-0.5-1.1-0.9-1.7
		c2.7-0.8,4.9-1.8,6.9-3.2c-0.2-0.3-0.2-0.5-0.4-0.9c-1.9,1.1-2.8,1.6-5.6,2.6c-0.3-0.6-0.6-1.1-0.9-1.6c2.3-0.6,3.7-1.1,5.7-2.2
		c-0.3-0.3-0.4-0.5-0.7-0.7c-1.2,0.6-2.5,1.2-4.1,1.6c-0.3-0.6-0.3-0.7-0.9-1.5c2-0.4,3.5-0.9,4.9-1.8h-1.9c-0.6,0-1.1,0-1.6,0.1
		c0-0.4,0.1-0.8,0.1-1.5V30.8z M38.5,31.8h2.8v-1.6h-2.8V31.8z M42.2,28.8c0.5-0.5,0.7-0.8,1-1.3h-3.2c-0.4,0.5-0.7,0.8-1.1,1.3
		H42.2z M39.1,41.3c0.8,0.1,1.3,0.2,1.8,0.2c1.1,0,1.3-0.3,1.3-1.6c0-0.1,0-0.2,0-0.5C41.4,40,40.7,40.4,39.1,41.3z M43.3,31.8h3.1
		v-1.6h-3.1V31.8z"/>
	<path d="M32.8,51c0-1.1-0.1-1.7-0.2-2.4h2.5c-0.1,0.6-0.1,1.2-0.1,2V51l0.1,9.5c1.8-0.8,3.8-1.9,5.1-2.7l0.5,2.1
		c-2.5,1.5-4.2,2.4-7.9,4c-0.8,0.3-0.9,0.4-1.4,0.6l-0.6-2.4c0.7-0.2,1-0.3,2-0.6L32.8,51z M47.6,48.6c0,0.2,0,0.2-0.2,2.8
		c-0.1,1.8-0.5,4-1,5.6c-0.3,1-0.7,1.9-1.3,2.9c1,1.8,2.4,3.2,4.4,4.3c-0.6,0.7-1,1.3-1.4,2.3c-1.8-1.3-3.1-2.7-4.3-4.6
		c-1.6,2-3.7,3.5-6.7,4.8c-0.5-0.9-0.8-1.4-1.3-2c3.5-1.4,5.7-3,7.1-5.3c1.4-2.3,2.2-5.5,2.2-9.4c0-0.6,0-0.9-0.1-1.3L47.6,48.6z
		 M38.8,49.8c1.6,1.6,2.5,2.7,4,4.9l-2.1,1.4c-1.5-2.5-2-3.2-3.8-5.1L38.8,49.8z"/>
	<path d="M40.7,87.2h5.8c1.1,0,2,0,2.7-0.1v2.4c-0.8-0.1-1.7-0.1-2.7-0.1H33.8c-0.9,0-1.9,0-2.8,0.1V87c0.8,0.1,1.6,0.1,2.8,0.1h4.6
		V74.2c0-0.9,0-1.5-0.1-2.3h2.6c-0.1,0.7-0.1,1.4-0.1,2.3v3.4h4.7c0.9,0,1.6,0,2.3-0.1v2.4c-0.7-0.1-1.5-0.1-2.3-0.1h-4.7V87.2z"/>
	<path d="M39.8,110.2c2.2-0.6,3.5-1.5,4.7-2.8c1.2-1.3,1.8-3,1.8-4.8c0-1.9-0.8-3.5-2.3-4.4c-0.9-0.6-2.2-0.9-3.5-0.9
		c-0.2,0-0.4,0-0.7,0c0.5,0.7,0.6,1.1,0.6,1.7c0,1.6-1.1,4.5-2.6,6.9c-1.3,2-2.2,3-3,3c-0.3,0-0.7-0.2-0.9-0.4
		c-0.2-0.2-0.2-0.3-0.6-1.3c-0.2-0.5-0.3-0.8-0.9-1.9c-0.3-0.6-0.5-1.2-0.5-1.8c0-1.3,0.7-2.7,1.8-4c1.6-1.7,4.3-2.8,6.9-2.8
		c2,0,3.9,0.7,5.2,1.8s1.9,2.8,1.9,4.7c0,2.5-1.5,4.7-4,6.1c-1.2,0.6-2.2,0.9-3.9,1.2L39.8,110.2z M33.3,104c0,1,0.3,1.9,0.8,2.6
		c0.3,0.4,0.5,0.6,0.8,0.6c0.4,0,1.4-1.1,2.4-2.6c1.5-2.4,2.5-4.9,2.5-6.2c0-0.3-0.1-0.5-0.3-1C36,98,33.3,100.9,33.3,104z"/>
	<path d="M44.5,116.9c1.5,0.6,3.1,1.3,3.9,1.9c0.8,0.6,1.1,1,1.1,1.7c0,0.7-0.4,1.3-0.7,1.3c0,0-0.2-0.1-0.3-0.1
		c-0.1-0.1-0.1-0.1-1-1.4c-0.7-1-1.8-2.1-3.1-3.2L44.5,116.9z"/>
	<path d="M3.8,15.4c0-0.3,0-0.4,0-0.6c-0.4,1.7-0.9,2.9-1.7,4.4c-0.6-0.8-1-1.3-1.6-1.8c1.4-2.1,1.9-4.4,1.9-8.6
		c0-0.8,0-1.2-0.1-1.8C2.2,7.2,2.1,7.2,1.9,7.3C1.5,6.5,1.2,6.1,0.5,5.5C2,4.7,2.8,4.1,3.8,3.1C4.6,2.4,5,1.9,5.5,1.3h2.2
		c1.1,1.3,2.3,2.1,4.4,3.1c-0.5,0.8-0.7,1.2-1,1.9c-0.8-0.5-1.1-0.7-1.6-1v0.9C9,6.2,8.7,6.2,8.3,6.2H5.5c-0.6,0-0.8,0-1.2,0.1V5.6
		C3.7,6.1,3,6.6,2.6,6.9c0.6,0,0.9,0,1.6,0h5.1c0.7,0,1,0,1.6-0.1c0,0.4-0.1,0.9-0.1,1.5v3.3c0,0.7,0,1.1,0.1,1.5
		c-0.6,0-0.8,0-1.4,0H4.1c0,0.4-0.1,0.6-0.1,0.8c0.3,0,0.6,0,1.1,0h4.7c0.5,0,0.9,0,1.4-0.1C11,14.4,11,14.7,11,15.3v2.4
		c0,0.7,0,1.1,0.1,1.6H9v-0.6H5.8v0.9H3.7c0.1-0.5,0.1-0.9,0.1-1.6V15.4z M4.3,10.8c0,0.3,0,0.4-0.1,0.8h4.5v-0.8H4.3z M8.8,9.3V8.5
		H4.4v0.8H8.8z M8.2,4.7c0.1,0,0.2,0,0.3,0C7.7,4.1,7.4,3.8,6.7,3.1c-0.6,0.7-0.8,1-1.5,1.6c0,0,0,0,0,0h0.2H8.2z M5.8,17.1H9v-1.6
		H5.8V17.1z M14.6,2.7c-0.1,0.5-0.1,1.1-0.1,2.1v8c0,1.2,0,1.6,0.1,2.1h-2.3c0.1-0.6,0.1-1,0.1-2.1V4.8c0-1,0-1.6-0.1-2.1H14.6z
		 M18.7,1.3c-0.1,0.6-0.1,1.2-0.1,2.4V17c0,1.9-0.5,2.3-3,2.3c-0.4,0-0.5,0-1.9-0.1c-0.1-1-0.2-1.4-0.5-2.1c0.8,0.1,1.7,0.2,2.3,0.2
		c0.7,0,0.9-0.1,0.9-0.6V3.8c0-1.2,0-1.8-0.1-2.5H18.7z"/>
	<path d="M0.9,32.5c0.5,0.1,0.8,0.1,1.6,0.1H4c0.6,0,1,0,1.5-0.1c-0.1,0.6-0.1,1.1-0.1,2.2V39c0.4,0.8,0.7,1.1,1.5,1.4
		c0.9,0.4,2,0.5,4.1,0.5c3.8,0,6.4-0.1,8.6-0.4c-0.4,1.3-0.4,1.3-0.6,2.3c-1.8,0.1-4.7,0.1-6.9,0.1c-3,0-4.2-0.1-5.3-0.4
		c-1.1-0.3-1.8-0.8-2.5-1.8c-0.9,0.8-1.3,1.2-2.2,1.9c-0.2,0.1-0.4,0.3-0.7,0.5l-1-2.3c0.7-0.3,1.7-1,2.9-2v-4.3H2.3
		c-0.5,0-0.9,0-1.3,0.1V32.5z M2.6,25.1c1.4,1.3,2.5,2.3,3.5,3.6l-1.7,1.6c-1.1-1.5-2-2.5-3.4-3.8L2.6,25.1z M8.9,29.1
		c-0.3,0.6-0.5,0.8-1.1,1.6c-0.6-0.5-1-0.8-1.8-1.2c1.3-1.5,2.3-3.2,2.5-4.4l2.1,0.5c0,0.1-0.3,0.7-0.4,0.9
		c-0.1,0.3-0.2,0.4-0.3,0.8h1.8v-0.5c0-1,0-1.4-0.1-1.9h2.3c-0.1,0.4-0.1,0.9-0.1,1.9v0.5h2.4c1,0,1.6,0,2.1-0.1v2.1
		c-0.6-0.1-1.1-0.1-2.1-0.1h-2.4v1.8h3.3c0.9,0,1.4,0,1.9-0.1v2c-0.7-0.1-1.2-0.1-1.9-0.1H7.9c-0.6,0-1.1,0-1.7,0.1v-2
		c0.5,0.1,0.9,0.1,1.8,0.1h3.6v-1.8H8.9z M9.3,39.6c-0.9,0-1.3,0-1.8,0.1c0-0.5,0.1-0.6,0.1-2.1v-2c0-1.4,0-1.4-0.1-1.8
		c0.6,0.1,1.2,0.1,2.2,0.1h6c0.9,0,1.5,0,2.1-0.1c-0.1,0.5-0.1,0.8-0.1,2v1.9c0,1.2,0,1.5,0.1,1.9c-0.6-0.1-1-0.1-2-0.1H9.3z
		 M9.6,37.7h6v-1.8h-6V37.7z"/>
	<path d="M19.5,51.4c0,1.4-1.2,2.6-2.6,2.6c-1.4,0-2.6-1.2-2.6-2.6c0-1.4,1.2-2.6,2.6-2.6C18.3,48.8,19.5,49.9,19.5,51.4z M15,51.4
		c0,1.1,0.9,1.9,1.9,1.9c1.1,0,1.9-0.9,1.9-1.9c0-1.1-0.9-1.9-1.9-1.9S15,50.3,15,51.4z"/>
</g>
<text transform="matrix(1 0 0 1 111.934 0.4065)" style="writing-mode:tb;"><tspan x="0" y="0" style="font-family:'HiraginoSans-W6-83pv-RKSJ-H'; font-size:20px;glyph-orientation-vertical:0; letter-spacing:3;">想像以上</tspan><tspan x="0" y="94.4" style="font-family:'HiraMinProN-W3-83pv-RKSJ-H'; font-size:20px;glyph-orientation-vertical:0; letter-spacing:3;">の、</tspan><tspan x="-30" y="0" style="font-family:'HiraginoSans-W6-83pv-RKSJ-H'; font-size:20px;glyph-orientation-vertical:0; letter-spacing:3;">創造</tspan><tspan x="-30" y="47.2" style="font-family:'HiraMinProN-W3-83pv-RKSJ-H'; font-size:20px;glyph-orientation-vertical:0; letter-spacing:3;">。</tspan></text>
</svg>
