<svg xmlns="http://www.w3.org/2000/svg" width="15.657" height="15.918" viewBox="0 0 15.657 15.918">
  <g id="拡声器のアイコンその5" transform="matrix(0.985, -0.174, 0.174, 0.985, -3.556, -14.618)">
    <path id="パス_406" data-name="パス 406" d="M196.44,17.287a.339.339,0,0,0-.32-.028l-7.495,3.219v5.745l7.5,3.22a.339.339,0,0,0,.472-.311V17.57A.336.336,0,0,0,196.44,17.287Z" transform="translate(-183.048 0)" fill="#afafaf"/>
    <path id="パス_407" data-name="パス 407" d="M4.94,127.034H1.356A1.355,1.355,0,0,0,0,128.389v3.034a1.355,1.355,0,0,0,1.356,1.355H4.94Z" transform="translate(0 -106.556)" fill="#afafaf"/>
    <path id="パス_408" data-name="パス 408" d="M475.625,186.44v2.55a1.294,1.294,0,0,0,0-2.55Z" transform="translate(-461.562 -164.205)" fill="#afafaf"/>
    <path id="パス_409" data-name="パス 409" d="M68.454,342.753H66.031l.994,4.012a.6.6,0,0,0,.586.483h1.377a.6.6,0,0,0,.572-.767Z" transform="translate(-64.079 -315.896)" fill="#afafaf"/>
  </g>
</svg>
