<svg xmlns="http://www.w3.org/2000/svg" width="20.155" height="20.492" viewBox="0 0 20.155 20.492">
  <g id="拡声器のアイコンその5" transform="matrix(0.985, -0.174, 0.174, 0.985, -0.726, 3.028)">
    <path id="パス_406" data-name="パス 406" d="M10.061.072A.437.437,0,0,0,9.649.035L0,4.18v7.4l9.649,4.145a.436.436,0,0,0,.608-.4V.436A.433.433,0,0,0,10.061.072Z" transform="translate(7.18 0)" fill="#151515"/>
    <path id="パス_407" data-name="パス 407" d="M6.359,0H1.745A1.744,1.744,0,0,0,0,1.744V5.65A1.745,1.745,0,0,0,1.745,7.4H6.359Z" transform="translate(0 4.18)" fill="#151515"/>
    <path id="パス_408" data-name="パス 408" d="M0,0V3.283A1.661,1.661,0,0,0,1.385,1.642,1.661,1.661,0,0,0,0,0Z" transform="translate(18.104 6.441)" fill="#151515"/>
    <path id="パス_409" data-name="パス 409" d="M3.119,0H0L1.28,5.165a.768.768,0,0,0,.754.622H3.807A.77.77,0,0,0,4.544,4.8Z" transform="translate(2.513 12.391)" fill="#151515"/>
  </g>
</svg>
