<svg xmlns="http://www.w3.org/2000/svg" width="60.652" height="40.869" viewBox="0 0 60.652 40.869">
  <g id="グループ_1" data-name="グループ 1" transform="translate(-875.132 -1346.782)">
    <path id="パス_433" data-name="パス 433" d="M933.367,1371.02c.678-1.888.447-1.517-1.035-1.532-1.467-.015-2.934-.025-4.4.007-.565.012-.791-.136-.768-.744.045-1.185.025-2.375.006-3.562-.007-.444.138-.623.6-.621q5.307.018,10.615,0c.553,0,.694.259.642.736a2.694,2.694,0,0,0-1.742-.419q-4.142-.008-8.286,0c-1.44.005-1.449.018-1.436,1.485a16.394,16.394,0,0,0,.05,2.292c-.07.466.271.431.563.456,1.606.074,3.211.006,4.121.023-.714,0-2.122.01-3.531,0-.955-.009-1.2-.26-1.205-1.208-.006-.7,0-1.4,0-2.1a.788.788,0,0,1,.772-.89,6.577,6.577,0,0,1,.9-.062q3.876,0,7.753,0c1.673,0,1.764,0,1.869,1.628a12.492,12.492,0,0,1-2.618,8.816,1.409,1.409,0,0,1-.642.519.7.7,0,0,1-.591-.114,15.534,15.534,0,0,1-2.669-2.2.37.37,0,0,1-.089-.256c.351-.79,1.031-1.359,1.417-2.136a7.383,7.383,0,0,0,.469-1.181C933.837,1370.26,934.132,1371.01,933.367,1371.02Z" transform="translate(-21.652 -7.4)" fill="#5285eb"/>
    <path id="パス_434" data-name="パス 434" d="M935.57,1375.9a5.123,5.123,0,0,0,1.7-2.042,14.571,14.571,0,0,0,1.656-6.52c.018-.58-.208-1.14-.147-1.727.024-.234-.13-.316-.348-.334-.483-.039-.954-.152-1.447-.148-2.442.019-4.885.009-7.327.009-.116,0-.233,0-.349,0-1.334.023-1.421.11-1.421,1.432,0,.512-.008,1.024,0,1.536.015.779.179.943.943.945,1.465,0,2.93,0,4.4,0,.241,0,.51-.075.725.166a1.1,1.1,0,0,1-.718.245c-1.512,0-3.024.006-4.536,0a2.311,2.311,0,0,1-.533-.131c-.153-.156-.42-.083-.555-.276,0-1.185.015-2.37-.01-3.555-.01-.465.106-.655.616-.651q5.088.03,10.176,0c.475,0,.64.254.823.574a13.426,13.426,0,0,1-1.5,8.663,9.886,9.886,0,0,1-1.819,2.359c-.105.1-.183.3-.4.18a.518.518,0,0,1-.377-.133.324.324,0,0,1-.026-.287C935.2,1376.012,935.424,1376.019,935.57,1375.9Z" transform="translate(-21.832 -7.516)" fill="#4a80ea"/>
    <path id="パス_435" data-name="パス 435" d="M913.683,1349.642a9.13,9.13,0,0,1,2.954-1.811,21.406,21.406,0,0,1,3.27-.855.765.765,0,0,1,.411-.012,11.3,11.3,0,0,0,2.293.1c-.538,0-1.263.011-1.99-.011a.121.121,0,0,1-.063-.192,11.021,11.021,0,0,1,6.609,1.237c-.166.214-.433.248-.654.364-1.077-.336-2.183-.558-3.276-.833a6.213,6.213,0,0,0-2.885-.065,16.743,16.743,0,0,0-3.079.813c-.768.333-1.484.749-2.237,1.1a2.211,2.211,0,0,1-.629.283C914.162,1349.733,913.9,1349.831,913.683,1349.642Z" transform="translate(-16.043)" fill="#d44c3c"/>
    <path id="パス_436" data-name="パス 436" d="M915.251,1373.667a8.216,8.216,0,0,0,5.276,4.5,6.507,6.507,0,0,0,3.626-.027l-.012.011c.282-.1.621-.03.849-.287l-.01.009a4,4,0,0,0,1.136-.539l.252-.065a.233.233,0,0,1,.253.191.4.4,0,0,1-.166.405,8,8,0,0,1-5.342,1.162,7.329,7.329,0,0,1-3.261-1.341,8.833,8.833,0,0,1-2.713-2.768.945.945,0,0,1-.184-.517,2.511,2.511,0,0,1,.15-.6A.287.287,0,0,1,915.251,1373.667Z" transform="translate(-16.572 -11.188)" fill="#56a257"/>
    <path id="パス_437" data-name="パス 437" d="M908.114,1378.179c-.147-.029-.134-.14-.127-.248.029-.171.145-.225.3-.227a.633.633,0,0,1,.568.408,9.712,9.712,0,0,0,2.958,3.643,11.656,11.656,0,0,0,5.254,2.422.949.949,0,0,1,.324.122,2.911,2.911,0,0,1,.413.292.314.314,0,0,1,0,.3.142.142,0,0,1-.191.007l.009.01a7.362,7.362,0,0,0-1.552-.3,11.811,11.811,0,0,1-6.591-4.282,6.786,6.786,0,0,1-1.249-2C908.272,1378.218,908.17,1378.216,908.114,1378.179Z" transform="translate(-13.671 -12.868)" fill="#54a155"/>
    <path id="パス_438" data-name="パス 438" d="M934.436,1349.329c.054-.393.379-.239.6-.3a8.747,8.747,0,0,1,2.474,1.721c.192.245-.012.4-.126.582-.874,1.086-1.895,2.033-2.86,3.033-.171.177-.354.234-.533.023a7.5,7.5,0,0,0-1.109-.815c-.044-.2-.6-.358-.039-.593a1.315,1.315,0,0,1,.873.378.63.63,0,0,0,.925-.068c.583-.6,1.2-1.171,1.766-1.784.448-.481.418-.593-.1-.973C935.7,1350.1,935.024,1349.787,934.436,1349.329Z" transform="translate(-23.913 -0.937)" fill="#d34736"/>
    <path id="パス_439" data-name="パス 439" d="M907.31,1370.85l-.319.11a5.4,5.4,0,0,1-.717-1.954,5.92,5.92,0,0,0-.277-1.014l0,.007a12.8,12.8,0,0,1-.138-1.769c-.006-.257.072-.552-.2-.743a.2.2,0,0,1,0-.305c.384-.409.117-.924.225-1.378a4.617,4.617,0,0,0,.17-1c.047-.381.17-.747.218-1.127a.109.109,0,0,1,.017-.113c.233-.139.074-.568.447-.605.142.047.276.1.295.281a15.192,15.192,0,0,0-.476,3.165c-.073.229-.249.425-.224.687,0,.173-.005.345,0,.518a1.978,1.978,0,0,0,.218.9,8.685,8.685,0,0,0,.779,3.388,2.046,2.046,0,0,1,.018.635,1.488,1.488,0,0,1,.01.168A.336.336,0,0,1,907.31,1370.85Z" transform="translate(-12.676 -5.897)" fill="#f0bb3e"/>
    <path id="パス_440" data-name="パス 440" d="M918.831,1355.6a8.545,8.545,0,0,0-3.741,3.612,4.328,4.328,0,0,1-.467.863c-.219.016-.32-.119-.388-.3a1.039,1.039,0,0,1,.245-.807,11.248,11.248,0,0,1,2.289-2.776,6.413,6.413,0,0,1,3.586-1.676c.412-.106.809-.4,1.255-.1.092.171,0,.28-.123.383A9.957,9.957,0,0,0,918.831,1355.6Z" transform="translate(-16.264 -3.121)" fill="#d34737"/>
    <path id="パス_441" data-name="パス 441" d="M937.164,1384.664c.148-.02.23.073.307.176l-.211.258a2.378,2.378,0,0,0-.538.469,9.512,9.512,0,0,1-3.9,1.919.186.186,0,0,1-.173.021c.1-.284-.307-.18-.3-.392a1.033,1.033,0,0,1,.746-.464,11.133,11.133,0,0,0,2.78-1.254c.316-.152.51-.47.785-.686A.421.421,0,0,1,937.164,1384.664Z" transform="translate(-23.809 -15.736)" fill="#54a155"/>
    <path id="パス_442" data-name="パス 442" d="M908.388,1375.153c-.251-.187.05-.373,0-.559.693-.726,1.6-1.194,2.317-1.886.393-.224.661-.611,1.06-.828a.405.405,0,0,1,.364-.074.7.7,0,0,1,.131.575,15.393,15.393,0,0,1-3.243,2.618C908.8,1375.038,908.635,1375.258,908.388,1375.153Z" transform="translate(-13.797 -10.405)" fill="#f6bd41"/>
    <path id="パス_443" data-name="パス 443" d="M909.03,1375.3a23.33,23.33,0,0,0,2.738-2.137,1.283,1.283,0,0,1,.563-.361.912.912,0,0,1,.216.5l-.047.045a.4.4,0,0,0-.378.34,33.414,33.414,0,0,1-3.045,2.448.21.21,0,0,1-.2,0c.025-.278-.243-.245-.376-.354-.016-.023-.03-.047-.045-.071C908.662,1375.595,908.823,1375.417,909.03,1375.3Z" transform="translate(-13.868 -10.83)" fill="#58a45c"/>
    <path id="パス_444" data-name="パス 444" d="M911.367,1351.616c.194.073.393-.244.584.009a7.792,7.792,0,0,1-1.676,1.788,2.4,2.4,0,0,0-.49.653,5.938,5.938,0,0,0-.809,1.36c-.1.244-.16.518-.462.607a.361.361,0,0,1-.351-.156.327.327,0,0,1-.022-.289l.124-.2a4.064,4.064,0,0,0,.734-1.147c.005-.269.219-.384.392-.529a1.541,1.541,0,0,0,.45-.579A9.817,9.817,0,0,1,911.367,1351.616Z" transform="translate(-13.727 -1.974)" fill="#d34534"/>
    <path id="パス_445" data-name="パス 445" d="M934.688,1376.949l-.185-.163a3.854,3.854,0,0,1,.807-.792,1.643,1.643,0,0,0,.473-.563l.639-1.111c.562-.428.592-1.074.678-1.827a1.589,1.589,0,0,1-.043,1.718,9.3,9.3,0,0,1-1.687,2.355,1.667,1.667,0,0,1-.447.48C934.824,1377.066,934.731,1377.066,934.688,1376.949Z" transform="translate(-24.707 -10.699)" fill="#4d83ea"/>
    <path id="パス_446" data-name="パス 446" d="M925.995,1354.309a2.11,2.11,0,0,0-1.258.279c-.016-.484.34-.561.692-.6a7.039,7.039,0,0,1,3.733.556c.254.116.517.242.467.6-.473.142.122.32-.016.474a1.193,1.193,0,0,1-.551-.3c-.478-.39-1.141-.329-1.64-.67C927,1354.3,926.4,1354.695,925.995,1354.309Z" transform="translate(-20.642 -2.98)" fill="#d54e3d"/>
    <path id="パス_447" data-name="パス 447" d="M926.443,1354.949c.464.341,1.148.22,1.53.732-1.973-.9-3.916-.506-5.853.14a5.151,5.151,0,0,1,2.647-.872.749.749,0,0,1,.434-.135c.27-.005.54,0,.81,0A.593.593,0,0,1,926.443,1354.949Z" transform="translate(-19.554 -3.341)" fill="#d55040"/>
    <path id="パス_448" data-name="パス 448" d="M914.458,1368.734l-.246.133-.082-.083c-.189-.406-.058-.847-.135-1.265a2.691,2.691,0,0,1-.082-1.168,5.119,5.119,0,0,0,.126-1.147c.038-.356.065-.749.557-.8A10.945,10.945,0,0,0,914.458,1368.734Z" transform="translate(-16.126 -7.332)" fill="#f0bc42"/>
    <path id="パス_449" data-name="パス 449" d="M914.41,1363.852a1.042,1.042,0,0,0-.388.956,1.724,1.724,0,0,1-.137.991c-.474-.108-.291-.5-.312-.78-.048-.617.243-1.258-.137-1.852.347-.234.447.055.58.274a.329.329,0,0,0,.288.228c.058-.041.1-.029.125.037Z" transform="translate(-15.94 -6.783)" fill="#efb840"/>
    <path id="パス_450" data-name="パス 450" d="M922.662,1346.915c0,.045,0,.09,0,.135a.188.188,0,0,1-.271.005c-1.252.118-2.413.636-3.647.831A9.993,9.993,0,0,1,922.662,1346.915Z" transform="translate(-18.148 -0.056)" fill="#d65444"/>
    <path id="パス_451" data-name="パス 451" d="M928.123,1381.336a4.848,4.848,0,0,1-3.626.027A9.9,9.9,0,0,0,928.123,1381.336Z" transform="translate(-20.543 -14.379)" fill="#5ca55d"/>
    <path id="パス_452" data-name="パス 452" d="M905.714,1368.718c.348.15.343.462.344.766,0,.582,0,1.164-.006,1.746A8.893,8.893,0,0,1,905.714,1368.718Z" transform="translate(-12.726 -9.129)" fill="#f0bc42"/>
    <path id="パス_453" data-name="パス 453" d="M906.062,1365.109c-.084.47.223,1.036-.345,1.386a8.639,8.639,0,0,1,.321-2.385l.079.086A2.292,2.292,0,0,1,906.062,1365.109Z" transform="translate(-12.728 -7.211)" fill="#f0bc42"/>
    <path id="パス_454" data-name="パス 454" d="M924.471,1389.873l.179-.038c.463-.3.982-.115,1.473-.171.65.021,1.3-.023,1.952.012a.137.137,0,0,1,.054.2A10.251,10.251,0,0,1,924.471,1389.873Z" transform="translate(-20.532 -17.842)" fill="#54a155"/>
    <path id="パス_455" data-name="パス 455" d="M921.828,1389.529c.533.015,1.1-.133,1.552.3A4.368,4.368,0,0,1,921.828,1389.529Z" transform="translate(-19.432 -17.783)" fill="#5ba45c"/>
    <path id="パス_456" data-name="パス 456" d="M930.73,1389.7l-.008-.161a1,1,0,0,1,1.262-.156l.163.028A3.671,3.671,0,0,1,930.73,1389.7Z" transform="translate(-23.133 -17.666)" fill="#5ba45c"/>
    <path id="パス_457" data-name="パス 457" d="M909.1,1356.171a1.477,1.477,0,0,1-.734,1.147A5.03,5.03,0,0,1,909.1,1356.171Z" transform="translate(-13.832 -3.907)" fill="#d44c3d"/>
    <path id="パス_458" data-name="パス 458" d="M933.262,1379.956a1.369,1.369,0,0,1-1.136.539A4.249,4.249,0,0,1,933.262,1379.956Z" transform="translate(-23.718 -13.805)" fill="#58a359"/>
    <path id="パス_459" data-name="パス 459" d="M907.862,1358.484l.04.25a.64.64,0,0,1-.283.848.166.166,0,0,1-.173-.06Z" transform="translate(-13.447 -4.87)" fill="#f0bc42"/>
    <path id="パス_460" data-name="パス 460" d="M907.208,1360.713c-.2.138-.126.482-.412.557a2.347,2.347,0,0,1,.38-1.008l.044.042A.284.284,0,0,1,907.208,1360.713Z" transform="translate(-13.177 -5.61)" fill="#f0bb3e"/>
    <path id="パス_461" data-name="パス 461" d="M906.559,1362.182c.09.4-.12.76-.131,1.146-.037.061-.079.064-.126.012l-.034-.032A2.72,2.72,0,0,1,906.559,1362.182Z" transform="translate(-12.957 -6.409)" fill="#f0bc42"/>
    <path id="パス_462" data-name="パス 462" d="M931.538,1380.865c-.169.432-.537.279-.85.286A1.729,1.729,0,0,1,931.538,1380.865Z" transform="translate(-23.119 -14.183)" fill="#58a359"/>
    <path id="パス_463" data-name="パス 463" d="M915.049,1363.56a.592.592,0,0,1-.125-.037,2.047,2.047,0,0,1,.461-.8A1.378,1.378,0,0,1,915.049,1363.56Z" transform="translate(-16.559 -6.636)" fill="#d3473c"/>
    <path id="パス_464" data-name="パス 464" d="M906.284,1373.009a1.25,1.25,0,0,1,.277,1.014A1.887,1.887,0,0,1,906.284,1373.009Z" transform="translate(-12.963 -10.914)" fill="#f0bc42"/>
    <path id="パス_465" data-name="パス 465" d="M936.358,1377.524a.561.561,0,0,1-.472.563Z" transform="translate(-25.282 -12.793)" fill="#4f84ea"/>
    <path id="パス_466" data-name="パス 466" d="M939.842,1385.923a.579.579,0,0,1,.538-.469A.843.843,0,0,1,939.842,1385.923Z" transform="translate(-26.928 -16.093)" fill="#56a256"/>
    <path id="パス_467" data-name="パス 467" d="M910.749,1354.273a.551.551,0,0,1-.45.579Z" transform="translate(-14.634 -3.117)" fill="#d44c3d"/>
    <path id="パス_468" data-name="パス 468" d="M940.8,1352.562l.126-.582C941.215,1352.225,941.2,1352.286,940.8,1352.562Z" transform="translate(-27.326 -2.163)" fill="#d44b3b"/>
    <path id="パス_469" data-name="パス 469" d="M908.207,1378.445c.122-.012.269-.21.351-.018.056.13-.133.141-.238.169Z" transform="translate(-13.764 -13.134)" fill="#449a4b"/>
    <path id="パス_470" data-name="パス 470" d="M935.272,1379.868a.387.387,0,0,1,.418-.4,16.93,16.93,0,0,0,3.075,2.516c-.013.284-.22.28-.422.28-.35.083-.549-.184-.783-.351-.638-.456-1.2-1-1.845-1.457A.852.852,0,0,1,935.272,1379.868Z" transform="translate(-25.027 -13.603)" fill="#5184f0"/>
    <path id="パス_471" data-name="パス 471" d="M927.615,1372.05a.479.479,0,0,1,.555.275C927.922,1372.361,927.62,1372.506,927.615,1372.05Z" transform="translate(-21.84 -10.513)" fill="#3974e8"/>
    <path id="パス_472" data-name="パス 472" d="M934.957,1380.141c1.012.814,1.992,1.67,3.07,2.4.013.088.026.176.039.264l-.456.155a6.805,6.805,0,0,1-1.762-1.2,11.724,11.724,0,0,0-1.119-.921c-.135-.078-.269-.193-.194-.393.125-.069.14-.193.157-.316Z" transform="translate(-24.711 -13.876)" fill="#5ba558"/>
    <path id="パス_473" data-name="パス 473" d="M923.2,1352.481c-.107-.119-.191-.292-.325-.35a8.037,8.037,0,0,0-4.043-.622.675.675,0,0,0-.523.412,5.533,5.533,0,0,0-3.338,1.474,10.356,10.356,0,0,0-2.392,2.86c-.456.213-.8-.073-1.145-.281-.713-.43-1.21-1.132-1.931-1.563a.472.472,0,0,1-.139-.672,2.568,2.568,0,0,1,.839-1.4,2.115,2.115,0,0,0,.42-.7l1.816-1.679c.592-.3,1.205-.567,1.772-.909a9.072,9.072,0,0,1,3.47-1.171c.477-.067.9-.282,1.394-.327a18.825,18.825,0,0,1,4.485.631c.389.057.759.395,1.178.517a8.6,8.6,0,0,1,2.444,1.411c.285.178.052.375-.062.521a31.177,31.177,0,0,1-2.327,2.405c-.24.246-.476.07-.7-.053C923.792,1352.823,923.559,1352.539,923.2,1352.481Z" transform="translate(-14.21 -0.314)" fill="#d55040"/>
    <path id="パス_474" data-name="パス 474" d="M924.99,1347.152l.272-.005h2.359A6.564,6.564,0,0,1,924.99,1347.152Z" transform="translate(-20.748 -0.152)" fill="#d13f2e"/>
    <path id="パス_475" data-name="パス 475" d="M923.993,1377.976a28.384,28.384,0,0,0,2.9,2.248.317.317,0,0,1,.175.269,7.011,7.011,0,0,1-3.224,1.921,9.6,9.6,0,0,0-1.109.454c-.29.215-.662.14-.975.274-.306.05-.616.065-.919.135-.524.013-1.049.021-1.573,0a10.111,10.111,0,0,1-1.423-.265,16.959,16.959,0,0,1-4.219-1.588,11.588,11.588,0,0,1-3.177-2.74,5.885,5.885,0,0,1-1.268-1.964l3.214-2.516a.329.329,0,0,1,.28.28,5.945,5.945,0,0,0,1.92,2.537,9.081,9.081,0,0,0,2.731,1.678,7.455,7.455,0,0,0,4.258.225C922.445,1378.733,923.169,1378.237,923.993,1377.976Z" transform="translate(-14.168 -11.411)" fill="#5ba45c"/>
    <path id="パス_476" data-name="パス 476" d="M914.884,1374.14l-.28-.28c-.044-.139-.2-.282-.036-.422.216-.182.289.118.444.155C915.01,1373.784,915.086,1373.994,914.884,1374.14Z" transform="translate(-16.38 -11.068)" fill="#4b9e53"/>
    <path id="パス_477" data-name="パス 477" d="M926.258,1389.742l-1.5-.016q-.01-.128-.021-.255a1.71,1.71,0,0,1,.792-.058C925.7,1389.692,926.15,1389.338,926.258,1389.742Z" transform="translate(-20.644 -17.733)" fill="#3f9540"/>
    <path id="パス_478" data-name="パス 478" d="M925.274,1389.415h-.834c-.154-.006-.32.024-.422-.141.465.063.956-.144,1.4.138A.085.085,0,0,1,925.274,1389.415Z" transform="translate(-20.344 -17.677)" fill="#54a155"/>
    <path id="パス_479" data-name="パス 479" d="M935.513,1357.6c-.065.1-.137.2-.267.179a.144.144,0,0,1-.117-.206.341.341,0,0,1,.222-.113C935.438,1357.442,935.538,1357.459,935.513,1357.6Z" transform="translate(-24.96 -4.441)" fill="#d03927"/>
    <path id="パス_480" data-name="パス 480" d="M910.039,1367.984a8.385,8.385,0,0,1-2.376,1.818,6.407,6.407,0,0,1-.838-3.635c-.16-.257-.077-.6-.28-.839v-.559c.183-.142.129-.4.28-.559a9.761,9.761,0,0,1,.3-2.882,1.688,1.688,0,0,1,.26-.474.358.358,0,0,1-.06-.415c.249-.267.472-.192.716.027a12.5,12.5,0,0,0,2.042,1.556,2.163,2.163,0,0,1,.609,2.438,1.654,1.654,0,0,0-.054,1.276C911.11,1366.849,911.025,1367.19,910.039,1367.984Z" transform="translate(-13.072 -5.613)" fill="#f0bc42"/>
    <path id="パス_481" data-name="パス 481" d="M907.783,1359.871v.418a.288.288,0,0,1-.28-.139q.005-.2.012-.409c.315-.189.3-.538.412-.83l.259.131a.171.171,0,0,1,.075.161A.886.886,0,0,1,907.783,1359.871Z" transform="translate(-13.471 -5.048)" fill="#f0bb31"/>
    <path id="パス_482" data-name="パス 482" d="M906.543,1368.934c.388.182.253.537.28.839A.928.928,0,0,1,906.543,1368.934Z" transform="translate(-13.07 -9.218)" fill="#f0bb3e"/>
    <path id="パス_483" data-name="パス 483" d="M906.823,1367.019c-.026.22.095.513-.28.559A.492.492,0,0,1,906.823,1367.019Z" transform="translate(-13.071 -8.422)" fill="#f0bb3e"/>
    <path id="パス_484" data-name="パス 484" d="M906.318,1364.157a.99.99,0,0,1,.126-.012c-.051.325.13.683-.137.979Z" transform="translate(-12.973 -7.226)" fill="#f0bb3e"/>
    <path id="パス_485" data-name="パス 485" d="M909.03,1377.081c-.141.2-.288.4-.572.409,0-.045,0-.09,0-.134C908.655,1377.276,908.78,1377.048,909.03,1377.081Z" transform="translate(-13.868 -12.607)" fill="#e5b940"/>
    <path id="パス_486" data-name="パス 486" d="M908.694,1358.855a.5.5,0,0,0-.023-.124c.3-.072.235-.422.436-.57,0,.161-.028.367.121.447,1.1.594,1.735,1.871,3.094,2.069-.137.223-.333.422-.288.717-.185-.1-.312-.3-.549-.311A11.987,11.987,0,0,1,908.694,1358.855Z" transform="translate(-13.957 -4.735)" fill="#d44d3f"/>
    <path id="パス_487" data-name="パス 487" d="M928.329,1354.849l-.429-.007a1.13,1.13,0,0,0-.82,0l-.427.006.14-.279c.362,0,.723,0,1.085,0C928.087,1354.568,928.3,1354.563,928.329,1354.849Z" transform="translate(-21.44 -3.24)" fill="#d2412f"/>
    <path id="パス_488" data-name="パス 488" d="M926.169,1389.324l.144,0h1.674c.259-.174.582.043.839-.139a1.8,1.8,0,0,1,.977-.141c.152.027.436-.088.285.265l-1.262.156a5.719,5.719,0,0,1-1.975.132C926.692,1389.336,926.329,1389.586,926.169,1389.324Z" transform="translate(-21.239 -17.586)" fill="#54a155"/>
    <path id="パス_489" data-name="パス 489" d="M908.408,1359.35a22.985,22.985,0,0,1,2.79,2.227c.3.379.624.673.323,1.29a1.494,1.494,0,0,0,.095,1.38,2.347,2.347,0,0,0,.132,1.12,1.611,1.611,0,0,0,.007,1.394v0c-.406.234-.613.736-1.119.838.315-.439.8-.789.7-1.441a1,1,0,0,0-.213-.629,1.239,1.239,0,0,1-.093-1.4,1.7,1.7,0,0,0-.441-2.338,11.724,11.724,0,0,1-2.167-1.7c-.164-.174-.3-.009-.444-.044Z" transform="translate(-13.671 -5.23)" fill="#f0bc41"/>
    <path id="パス_490" data-name="パス 490" d="M911.273,1354.571a.666.666,0,0,1-.42.7A1.281,1.281,0,0,1,911.273,1354.571Z" transform="translate(-14.865 -3.241)" fill="#d44c3d"/>
    <path id="パス_491" data-name="パス 491" d="M927.385,1354.927a.629.629,0,0,1,.82,0Z" transform="translate(-21.745 -3.327)" fill="#ce3422"/>
    <path id="パス_492" data-name="パス 492" d="M914.231,1371.05a.972.972,0,0,1-.007-1.394Q914.228,1370.353,914.231,1371.05Z" transform="translate(-16.147 -9.519)" fill="#ebbb41"/>
    <path id="パス_493" data-name="パス 493" d="M930.123,1389.279c-.245.253-.559.095-.839.139C929.53,1389.167,929.843,1389.324,930.123,1389.279Z" transform="translate(-22.535 -17.682)" fill="#54a155"/>
    <g id="グループ_194" data-name="グループ 194" transform="translate(875.132 1378.575)">
      <path id="パス_494" data-name="パス 494" d="M933.38,1401.59a5.408,5.408,0,0,0-2.829-.321c-.337,0-.454.248-.45.577.028,1.926.023,3.851,0,5.777,0,.369.138.607.512.583.41-.025.569-.266.4-.67-.011-.278-.03-.556-.031-.834,0-1.373,0-1.373,1.388-1.388a1.983,1.983,0,0,0,2.068-1.52A2.031,2.031,0,0,0,933.38,1401.59Zm.126,2.581a.256.256,0,0,1-.26.255,3.732,3.732,0,0,1-1.7.28c-.417,0-.6-.147-.578-.568a5.845,5.845,0,0,1,.013-.765c.085-.423-.3-1.106.255-1.227a2.138,2.138,0,0,1,2.107.353A1.359,1.359,0,0,1,933.505,1404.171Z" transform="translate(-898.007 -1401.235)" fill="#606367"/>
      <path id="パス_495" data-name="パス 495" d="M916.148,1404.818h-.008c0-.931-.01-1.861.005-2.791.006-.351-.029-.57-.474-.562-.392.007-.539.13-.537.524q.018,2.86,0,5.721c0,.39.132.541.528.533s.5-.189.493-.565C916.133,1406.725,916.148,1405.772,916.148,1404.818Z" transform="translate(-891.778 -1401.331)" fill="#606367"/>
      <path id="パス_496" data-name="パス 496" d="M922.021,1405.533h0a2.182,2.182,0,0,0-3.523-.117,2.54,2.54,0,0,0-.148,3.266l.109.129h0a1.008,1.008,0,0,0,.46.4h0a2.331,2.331,0,0,0,3.131-.3c.148-.16.4-.327.145-.572-.221-.208-.479-.393-.8-.137l-.7.563a1.767,1.767,0,0,1-1.609-.549h0c-.314-.778-.283-.826.521-.82.784.005,1.568,0,2.353.013.347.005.641-.075.561-.487C922.433,1406.441,922.461,1405.9,922.021,1405.533Zm-3.8,2.422s0-.007-.008-.01h.01Zm1.958-1.584c-.289,0-.694.148-.837-.137-.129-.258.261-.375.4-.594.02-.006.038-.017.06-.022a1.793,1.793,0,0,1,1.348.344.686.686,0,0,1,.083.048C921.054,1406.5,920.582,1406.376,920.182,1406.371Z" transform="translate(-892.898 -1402.627)" fill="#606367"/>
      <path id="パス_497" data-name="パス 497" d="M878.836,1404.5c-.271-.011-.3.246-.3.462,0,.265.093.462.388.467.462.006.925.006,1.386-.014.5-.021.541.246.4.618-.179.474-.625.715-.953,1.059a3.376,3.376,0,0,1-2.187.021,4.145,4.145,0,0,1-1.265-1.256h0a4.081,4.081,0,0,1,0-2.219h0l-.005,0a2.6,2.6,0,0,1,2.9-1.354h0c.2.2.556.009.718.31a.354.354,0,0,0,.523.163c.17-.1.4-.272.414-.43.022-.226-.2-.378-.456-.4a2.744,2.744,0,0,0-3.3-.279l.008-.009a3.293,3.293,0,0,0-1.868,3.917.432.432,0,0,0,.048.18l-.007-.006h0a1.09,1.09,0,0,0,.3.7.529.529,0,0,0,.267.423,1.285,1.285,0,0,0,.706.708h0a3.256,3.256,0,0,0,4.08-.015,1.063,1.063,0,0,0,.553-.539,1.828,1.828,0,0,0,.528-.87,1.444,1.444,0,0,0,.142-1.526A12.02,12.02,0,0,0,878.836,1404.5Zm2.619.249h0v0Z" transform="translate(-875.132 -1401.236)" fill="#606367"/>
      <path id="パス_498" data-name="パス 498" d="M961.013,1405.277c0-.084-.041-.121-.123-.119-.058-.325-.291-.419-.581-.435a1.424,1.424,0,0,0-1.338.145h0l-.211.16c-.176-.054-.4.283-.534-.051a.387.387,0,0,0-.555-.252c-.257.1-.2.34-.2.542,0,1.28,0,2.56-.008,3.839,0,.163-.027.33.145.432.5.205.642.033.649-.491.016-1.114-.264-2.268.355-3.32l.286-.285c1.363-.317,1.852.076,1.838,1.468-.008.719,0,1.439-.016,2.158-.007.318.027.564.429.547.344-.014.4-.22.4-.517-.016-.928,0-1.857-.022-2.784C961.516,1405.907,961.494,1405.469,961.013,1405.277Zm-3.345,3.828v-.013a.125.125,0,0,0,.028.007C957.686,1409.1,957.676,1409.1,957.668,1409.105Zm.112-.022-.015,0,.015-.009Zm.26.155-.01-.013h.01Zm1.411-4.352h0l0,0v0Z" transform="translate(-909.394 -1402.644)" fill="#606367"/>
      <path id="パス_499" data-name="パス 499" d="M941.928,1406.4a1.661,1.661,0,0,0-1.068-1.642,2.576,2.576,0,0,0-1.766-.047.722.722,0,0,0-.553.269c-.329.118-.556.316-.318.67.225.335.45.132.695-.047a1.481,1.481,0,0,1,2.163.267c.014.245.277.5.069.721-.229.248-.465-.048-.7-.093a2.144,2.144,0,0,0-1.9.322.618.618,0,0,0-.419.411h0a1.4,1.4,0,0,0,.729,2.225h0l.13.037a1.353,1.353,0,0,0,1.409-.12.507.507,0,0,0,.414-.3c.124-.021.284-.146.344.065.071.251.166.441.471.373.349-.077.3-.357.3-.611C941.928,1408.072,941.923,1407.237,941.928,1406.4Zm-.861,1.754a.115.115,0,0,0-.014,0,.473.473,0,0,0-.406.409.682.682,0,0,0-.288.125c-.083.071-.169.137-.253.206a1.36,1.36,0,0,1-1.446-.45,1.123,1.123,0,0,1,.006-.74,1.153,1.153,0,0,1,.251-.3,1.173,1.173,0,0,1,.3-.158,1.381,1.381,0,0,0,.166-.087c.013-.009.026-.015.039-.023l.984-.006.1.035c.141.033.28.088.422.118C941.2,1407.464,941.235,1407.762,941.067,1408.156Z" transform="translate(-901.225 -1402.627)" fill="#606367"/>
      <path id="パス_500" data-name="パス 500" d="M910.194,1404.969a.175.175,0,0,0-.03-.109c-.254-.285-.611-.25-.733.015-.2.438-.417.175-.644.12a.2.2,0,0,0-.04.05l0-.006.044-.044a1.68,1.68,0,0,0-2.153,0h0a.257.257,0,0,0,.041.043l0,0-.037-.045a1.083,1.083,0,0,0-.689.692h0a.711.711,0,0,0-.271.448h0a2.321,2.321,0,0,0,.282,2.393l.28.288a.452.452,0,0,0,.277.268,1.9,1.9,0,0,0,2.063.288c.246-.09.429-.545.675-.307s-.034.609-.123.911a2.384,2.384,0,0,1-.269.482,1.568,1.568,0,0,1-2.182-.281h0l0,.005c-.294-.375-.536,0-.753.1-.253.111-.109.339.025.506h0c.041.249.3.256.44.391a2.36,2.36,0,0,0,3.489-.544,1.672,1.672,0,0,0,.382-1.087c.02-.854.034-1.711.006-2.565A8.162,8.162,0,0,0,910.194,1404.969Zm-1.5,3.124c-.1.124-.243.217-.284.385,0,.008,0,.014,0,.022a5.873,5.873,0,0,1-1.653-.542c0-.006.009-.008.011-.014a1.341,1.341,0,0,0-.026-.552c-.145-1.143.359-1.723,1.5-1.724a.515.515,0,0,0,.333-.065l.023,0a.219.219,0,0,0-.021.026c-.006.23.162.375.267.552A1.5,1.5,0,0,1,908.693,1408.094Zm1.041-2.784v0h0Zm.381-.013s.008,0,.011-.008v.022Z" transform="translate(-887.76 -1402.637)" fill="#606367"/>
      <path id="パス_501" data-name="パス 501" d="M976.5,1404.579a1.233,1.233,0,0,0-1.165.439c-.13.058-.3.276-.387.015-.108-.307-.274-.412-.572-.322-.34.1-.27.392-.271.637,0,1.183,0,2.365.093,3.546.025.313-.016.666.412.655s.3-.39.308-.644c.043-1.076-.181-2.184.4-3.193h0l.147-.138c.336-.038.643-.252,1-.157.252.067.461.032.492-.294A.434.434,0,0,0,976.5,1404.579Zm-1.023.447h0Z" transform="translate(-916.318 -1402.625)" fill="#606367"/>
      <path id="パス_502" data-name="パス 502" d="M900.705,1405.539h0l-.307-.372a.947.947,0,0,0-.821-.437l0,0a2.2,2.2,0,0,0-1.545.026,2.526,2.526,0,0,0-1.133.949.585.585,0,0,0-.3.546l.079.068h0v.017a.441.441,0,0,0-.078-.085l-.086.039q-.006.833-.011,1.666c.123.19.147.445.376.565a2.165,2.165,0,0,0,.713.718h0a.576.576,0,0,0,.574.268,2.038,2.038,0,0,0,2.249-.43l.414-.42A2.268,2.268,0,0,0,900.705,1405.539Zm-3.383,1.171,0,0,.006,0Zm2.352,1.6a1.112,1.112,0,0,1-1.464,0,1.549,1.549,0,0,1-.476-1.691,3.022,3.022,0,0,1,.205-.439.715.715,0,0,0,.125-.427l.022-.017a15.88,15.88,0,0,1,1.693-.006c.017.015.034.027.051.044-.01.325.237.554.325.844A1.575,1.575,0,0,1,899.674,1408.311Z" transform="translate(-884.025 -1402.637)" fill="#606367"/>
      <path id="パス_503" data-name="パス 503" d="M947.967,1404.744a6.374,6.374,0,0,0-.679.307c-.191.087-.383.2-.52-.081a.4.4,0,0,0-.528-.207c-.253.083-.224.324-.225.528-.005,1.3-.005,2.592-.009,3.888,0,.218.006.451.28.475.227.02.539.131.58-.276h0c0-.629.015-1.258,0-1.886a2.222,2.222,0,0,1,.437-1.7h0l.59-.31h0a1,1,0,0,0,.2.008c.2-.032.485.132.578-.192a.54.54,0,0,0-.067-.521C948.413,1404.559,948.173,1404.677,947.967,1404.744Zm-.43.7.043-.015v.019Z" transform="translate(-904.625 -1402.656)" fill="#606367"/>
      <path id="パス_504" data-name="パス 504" d="M891.931,1406.139c.015-.246-.172-.384-.3-.553a.517.517,0,0,0-.412-.448,1.14,1.14,0,0,0-.848-.412h0l0,.007a1.651,1.651,0,0,0-1.28,0l0-.007a1.06,1.06,0,0,0-.855.43l-.517.437a2.079,2.079,0,0,0-.291,2.506c.864,1.625,2.469,2.043,3.806.993a1.552,1.552,0,0,0,.684-.959c.183-.023.219-.168.258-.311l-.006-1.4C892.117,1406.311,892.1,1406.158,891.931,1406.139Zm-1.53,2.222a1.087,1.087,0,0,1-1.551-.238c-.161-.16-.259-.4-.509-.454-.012-.037-.023-.074-.033-.11.169-.566.315-1.137.478-1.7.028-.027.057-.055.087-.082.229.086.43-.051.643-.09a1.281,1.281,0,0,1,1.41.88A1.531,1.531,0,0,1,890.4,1408.361Z" transform="translate(-880.13 -1402.636)" fill="#606367"/>
      <path id="パス_505" data-name="パス 505" d="M953.96,1407.879a4.432,4.432,0,0,1-.478.029h0a.727.727,0,0,1-.293-.667c-.016-.508.036-1.022-.026-1.523-.095-.767-.027-1.338.965-1.213.026,0,.06-.063.09-.1h0c.279-.485.023-.626-.412-.6-.5.032-.748-.119-.649-.672.057-.319.086-.708-.4-.711-.457,0-.383.379-.368.667.022.4.024.715-.544.726-.4.008-.375.309-.179.586h0l0,0v0c.732.118.747.625.739,1.227a7.007,7.007,0,0,0,.1,2.261c.261.872.944.889,1.668.823.452-.029.323-.369.3-.614C954.447,1407.761,954.19,1407.841,953.96,1407.879Zm-.161-3.5h0Z" transform="translate(-906.926 -1401.732)" fill="#606367"/>
      <path id="パス_506" data-name="パス 506" d="M968.184,1404.622h0c-1.479.012-2.243.474-2.626,1.59a2.6,2.6,0,0,0,.95,3.029h0a1.849,1.849,0,0,0,1.986.319.263.263,0,0,0,.151-.05,2.12,2.12,0,0,0,.911-.615c.168-.172.343-.358.072-.578a.385.385,0,0,0-.607.067,1.59,1.59,0,0,1-2.064.408c-.109-.12-.22-.238-.326-.36-.253-.29-.485-.668-.353-1,.138-.35.582-.127.889-.153.346-.03.7.023,1.044-.013.562-.06,1.147.174,1.686-.136a2.33,2.33,0,0,0-.583-1.918A.968.968,0,0,0,968.184,1404.622Zm.2,4.822c0,.013-.007.027-.01.041l-.038,0C968.353,1409.467,968.371,1409.457,968.386,1409.444Zm.537-4.332c0,.012.01.021.013.034l0,.005s-.006,0-.01,0l.008,0a.263.263,0,0,1-.036-.005A.253.253,0,0,0,968.923,1405.112Zm.117,1.376c-.131.288-.446.179-.691.183-.534.008-1.07-.007-1.6.009-.375.012-.5-.161-.462-.509a1.662,1.662,0,0,1,2.207-.723c.1.1.191.2.288.3C968.983,1405.956,969.171,1406.2,969.04,1406.488Z" transform="translate(-912.696 -1402.639)" fill="#606367"/>
    </g>
  </g>
</svg>
